<?xml version="1.0" encoding="UTF-8"?>
<svg id="Layer_2" data-name="Layer 2" xmlns="http://www.w3.org/2000/svg" viewBox="0 0 405.23 395.64">
  <g id="Layer_1-2" data-name="Layer 1">
    <g>
      <path d="m263.27,336.29c0-13.76.07-27.53-.04-41.29-.04-5.05,1.42-9.11,6.31-11.13,4.88-2.02,8.8-.24,12.35,3.37,8.65,8.8,17.55,17.36,26.09,26.26,2.65,2.76,4.05,2.99,6.98.18,82.05-78.64,58.48-216.18-45.14-263.11-9.67-4.38-19.68-7.73-29.97-10.32-12.53-3.15-19.25-13.51-16.42-25.12,2.73-11.22,14.17-17.65,26.48-14.2,84.73,23.76,137.1,78.71,152.15,165.32,11.74,67.54-9.55,126.45-57.83,175.26-3.37,3.41-3.52,5.02-.04,8.27,7.62,7.12,14.77,14.76,22.15,22.14,3.39,3.39,5.26,7.13,3.27,11.93-1.96,4.74-5.83,6.4-10.63,6.4-28,.01-56.01.06-84.01-.02-8.02-.02-11.68-3.96-11.69-12.18-.03-13.92,0-27.84,0-41.77Z"/>
      <path d="m141.75,59.11c0,13.76.01,27.53,0,41.29,0,6.18-2.04,9.83-6.54,11.46-4.97,1.8-8.79-.13-12.3-3.71-8.86-9.04-17.94-17.86-26.76-26.93-2.04-2.09-3.17-2.11-5.25-.06-35.13,34.66-52.42,76.42-50.02,125.93,3.33,68.75,52.42,130.9,124.12,148.19,8.39,2.02,14.36,6.72,16.55,15.17,3.94,15.18-9.56,28.25-25.37,24.58-14.19-3.3-28-7.92-41-14.53C50.33,347.48,11.24,295.15,1.85,222.98-6.57,158.18,13.91,101.99,59.56,55.11c.88-.91,1.71-1.91,2.73-2.63,2.54-1.8,1.98-3.18-.03-5.15-7.91-7.75-15.62-15.7-23.46-23.53-3.37-3.36-5.39-7.02-3.47-11.89,1.98-5,6-6.58,10.98-6.58,27.85,0,55.69-.04,83.54.03,8.12.02,11.86,3.88,11.89,11.99.04,13.92.01,27.85.01,41.77Z"/>
      <path d="m174.05,282.4c-5.7.14-10.54-1.94-14.52-5.9-19.05-18.98-38.14-37.93-57.03-57.07-8.43-8.54-8.23-20.9-.03-28.88,8.04-7.83,20.13-7.8,28.55.46,13.22,12.95,26.3,26.05,39.24,39.28,2.72,2.78,4.16,2.88,6.97.05,31.77-31.99,63.68-63.84,95.57-95.7,8.18-8.17,18.47-9.45,27.02-3.46,10.11,7.08,11.79,20.61,3.69,29.9-.93,1.07-1.96,2.07-2.96,3.07-36.8,36.8-73.62,73.59-110.38,110.43-4.52,4.53-9.43,7.91-16.12,7.82Z"/>
    </g>
  </g>
</svg>