<svg width="1280" height="781" viewBox="0 0 1280 781" fill="none" xmlns="http://www.w3.org/2000/svg">
<path d="M1225.49 0.215088H54V779.861H1225.49V0.215088Z" fill="#06111C"/>
<path fill-rule="evenodd" clip-rule="evenodd" d="M1225.49 374.935V779.851H54V318.914C142.984 287.086 310.714 249.302 496.064 320.714C747.527 417.608 854.298 517.094 1225.48 374.926L1225.49 374.935Z" fill="#0A1726"/>
<path d="M869.044 374.769C891.73 391.95 917.741 400.007 946.167 400.379C949.609 400.193 953.061 400.086 956.493 399.802C989.036 397.084 1017.28 385.027 1038.85 360.004C1057.1 338.833 1065.13 314.045 1059.47 286.264C1053.44 256.685 1035.69 234.986 1009.58 220.749C966.985 197.535 923.872 198.757 881.727 221.844C859.187 234.184 842.877 252.685 834.927 277.777C823.525 313.771 839.885 352.68 869.054 374.769H869.044Z" fill="#FFFCFF"/>
<path d="M1068 234.722C1068.28 215.292 1068.17 195.843 1068.04 176.413C1067.97 166.527 1062.88 160.797 1053.15 158.831C1051.75 158.548 1050.37 158.401 1048.97 158.333H923.305C917.692 158.343 912.089 158.352 906.476 158.372C906.085 158.372 905.723 158.362 905.381 158.333H840.569C832.307 159.526 825.413 165.549 825.051 175.69C824.327 195.755 824.894 215.811 824.748 235.876C824.718 239.279 823.809 241.665 821.345 244.09C802.844 262.258 796.635 284.054 804.017 308.95C808.926 325.495 819.428 338.041 835.543 346.5C811.791 286.91 820.964 235.26 869.973 193.565C907.053 162.009 960.228 159.653 999.929 179.298C1024.08 191.257 1043.23 208.897 1055.52 232.874C1074.61 270.11 1073.32 308.06 1056.23 346.46C1057.59 346.06 1058.21 346.001 1058.68 345.717C1075.43 335.626 1086.12 321.007 1089.71 301.822C1093.75 280.309 1087.65 261.486 1072.37 245.86C1069.14 242.555 1067.95 239.337 1068.02 234.722H1068Z" fill="#FFFCFF"/>
<path d="M944.328 411.82C904.207 411.673 869.895 397.309 841.518 366.634C841.518 372.246 841.273 376.461 841.557 380.646C842.721 397.925 850.289 411.36 865.592 420.083C879.136 427.798 894.165 430.154 909.263 431.719C929.866 433.851 950.597 433.508 971.239 432.501C986.552 431.758 1001.68 429.137 1016.2 423.662C1034.44 416.787 1045 403.753 1047.99 384.645C1048.73 379.903 1049.1 374.975 1048.19 369.352C1019.32 399.421 984.234 411.966 944.319 411.82H944.328Z" fill="#FFFCFF"/>
<path d="M799.402 314.397C798.16 305.587 795.921 298.145 795.97 290.244C796.019 282.187 798.483 274.667 799.822 266.6C784.216 279.087 784.245 299.103 799.402 314.397Z" fill="#FFFCFF"/>
<path d="M1091.67 267.421C1095.95 282.793 1096.68 298.135 1091.81 313.527C1107.03 300.228 1106.62 273.67 1091.67 267.421Z" fill="#FFFCFF"/>
<path d="M1065.57 285.922C1054.23 285.257 1047.67 283.908 1043.9 278.559C1023.36 249.331 983.902 249.175 963.925 283.81C962.194 286.802 952.044 285.423 946.656 285.599C941.268 285.423 931.108 286.812 929.387 283.81C909.371 249.106 869.885 249.439 849.409 278.559C845.654 283.908 839.093 285.247 827.74 285.922C826.303 286.01 825.892 303.562 828.786 303.787C838.438 304.55 840.52 303.064 846.573 318.621C861.143 356.112 918.22 357.236 931.568 312.373C933.846 304.716 939.596 297.402 946.656 298.448C953.97 297.363 959.602 305.146 961.744 312.373C967.484 331.666 984.127 346.46 1005.15 346.46C1024.15 346.46 1040.31 335.157 1046.74 318.621C1052.73 303.21 1054.67 304.56 1064.53 303.787C1067.42 303.562 1067.01 286 1065.57 285.922ZM888.161 336.555C868.966 336.555 853.408 320.997 853.408 301.802C853.408 282.607 868.966 267.05 888.161 267.05C907.356 267.05 922.914 282.607 922.914 301.802C922.914 320.997 907.356 336.555 888.161 336.555ZM1005.15 336.555C985.955 336.555 970.398 320.997 970.398 301.802C970.398 282.607 985.955 267.05 1005.15 267.05C1024.35 267.05 1039.9 282.607 1039.9 301.802C1039.9 320.997 1024.35 336.555 1005.15 336.555Z" fill="#6369D1"/>
<path fill-rule="evenodd" clip-rule="evenodd" d="M935.722 641.607C793.751 577.701 669.349 546.605 657.855 572.138C646.361 597.672 752.137 670.174 894.1 734.08C933.217 751.69 970.997 766.802 1005.46 778.928V675.121C983.564 663.883 960.183 652.621 935.722 641.615V641.607Z" fill="white"/>
<path fill-rule="evenodd" clip-rule="evenodd" d="M937.267 632.826C795.296 568.921 670.894 537.824 659.4 563.358C647.905 588.891 753.682 661.394 895.645 725.3C934.762 742.909 972.542 758.013 1006.99 770.147V666.34C985.1 655.102 961.72 643.84 937.259 632.835L937.267 632.826Z" fill="#486887"/>
<path fill-rule="evenodd" clip-rule="evenodd" d="M937.267 632.827C838.567 588.403 748.375 559.836 698.692 555.129C690.664 556.314 685.429 559.011 683.476 563.358C671.982 588.891 777.758 661.394 919.722 725.3C949.914 738.891 979.305 750.993 1006.99 761.383V666.34C985.1 655.102 961.72 643.84 937.259 632.835L937.267 632.827Z" fill="#162B42"/>
<path fill-rule="evenodd" clip-rule="evenodd" d="M957.462 605.829C815.49 541.931 691.088 510.826 679.594 536.36C668.1 561.893 773.876 634.396 915.84 698.302C947.448 712.525 978.177 725.124 1006.99 735.834V629.177C991.096 621.333 974.543 613.521 957.454 605.829H957.462Z" fill="#6369D1"/>
<path fill-rule="evenodd" clip-rule="evenodd" d="M947.424 576.941C805.453 513.035 681.051 481.939 669.557 507.472C658.063 533.006 763.839 605.508 905.802 669.414C941.109 685.302 975.327 699.166 1006.99 710.636V605.3C988.07 595.783 968.131 586.274 947.416 576.949L947.424 576.941Z" fill="#1E3650"/>
<path fill-rule="evenodd" clip-rule="evenodd" d="M947.424 576.941C939.924 573.563 932.48 570.29 925.101 567.104C851.854 544.092 799.61 537.632 792.35 553.753C781.448 577.974 876.067 644.457 1007 705.769V605.292C988.078 595.775 968.139 586.266 947.424 576.941Z" fill="#486887"/>
<path fill-rule="evenodd" clip-rule="evenodd" d="M677.137 492C668.901 493.153 663.538 495.874 661.545 500.284C650.051 525.818 755.827 598.32 897.79 662.226C918.529 671.559 938.884 680.196 958.574 688.048C943.11 681.332 927.278 674.129 911.221 666.485C769.25 598.889 663.482 522.2 674.976 495.186C675.48 494.009 676.209 492.953 677.129 492H677.137Z" fill="white"/>
<path fill-rule="evenodd" clip-rule="evenodd" d="M1035.91 91.3699C1036.43 91.3699 1036.84 90.9494 1036.84 90.4312C1036.84 89.9129 1036.42 89.5022 1035.91 89.5022C1035.41 89.5022 1034.97 89.9227 1034.97 90.4312C1034.97 90.9396 1035.4 91.3699 1035.91 91.3699Z" fill="white"/>
<path fill-rule="evenodd" clip-rule="evenodd" d="M1004.51 160.768C1005.82 160.768 1006.87 159.712 1006.87 158.411C1006.87 157.111 1005.82 156.054 1004.51 156.054C1003.21 156.054 1002.16 157.111 1002.16 158.411C1002.16 159.712 1003.21 160.768 1004.51 160.768Z" fill="white"/>
<path fill-rule="evenodd" clip-rule="evenodd" d="M303.898 185.223C305.199 185.223 306.255 184.167 306.255 182.867C306.255 181.566 305.199 180.51 303.898 180.51C302.598 180.51 301.542 181.566 301.542 182.867C301.542 184.167 302.598 185.223 303.898 185.223Z" fill="white"/>
<path fill-rule="evenodd" clip-rule="evenodd" d="M132.042 82.804C133.342 82.804 134.398 81.748 134.398 80.4474C134.398 79.1469 133.342 78.0908 132.042 78.0908C130.741 78.0908 129.685 79.1469 129.685 80.4474C129.685 81.748 130.741 82.804 132.042 82.804Z" fill="white"/>
<path fill-rule="evenodd" clip-rule="evenodd" d="M336.627 151.478C337.272 151.478 337.8 150.95 337.8 150.305C337.8 149.659 337.272 149.131 336.627 149.131C335.981 149.131 335.453 149.659 335.453 150.305C335.453 150.95 335.981 151.478 336.627 151.478Z" fill="white"/>
<path fill-rule="evenodd" clip-rule="evenodd" d="M639.201 600.466C797.388 600.466 949.394 602.099 1091.13 605.091H187.271C329 602.089 481.015 600.466 639.201 600.466Z" fill="white"/>
<path d="M1225.49 609.129H54V779.861H1225.49V609.129Z" fill="#0A1726"/>
<path fill-rule="evenodd" clip-rule="evenodd" d="M1225.49 663.566V779.861H54V655.245C204.686 648.087 380.121 643.98 567.428 643.98C818.431 643.98 1048.15 651.353 1225.49 663.566ZM576.815 669.717C457.938 671.526 361.581 685.294 361.581 700.451C361.581 715.607 457.948 726.442 576.815 724.623C695.692 722.814 792.049 709.046 792.049 693.889C792.049 678.733 695.682 667.898 576.815 669.717Z" fill="#0F2338"/>
<path fill-rule="evenodd" clip-rule="evenodd" d="M367.888 669.941C774.702 666.157 1104.49 688.765 1104.49 720.437C1104.49 746.047 888.904 769.731 591.346 779.871H54V678.322C149.223 673.941 255.612 670.988 367.888 669.941Z" fill="white"/>
<path fill-rule="evenodd" clip-rule="evenodd" d="M571.965 779.861H54V694.779C420.751 694.652 705.568 716.252 705.568 745.686C705.568 757.948 656.128 769.76 571.955 779.871L571.965 779.861Z" fill="#162B42"/>
<path fill-rule="evenodd" clip-rule="evenodd" d="M579.338 680.023C721.918 678.527 837.499 687.465 837.499 699.991C837.499 712.517 721.918 723.88 579.338 725.376C436.758 726.872 321.177 717.934 321.177 705.408C321.177 692.882 436.758 681.519 579.338 680.023Z" fill="white"/>
<path fill-rule="evenodd" clip-rule="evenodd" d="M585.547 396.859C586.574 396.859 587.415 396.018 587.415 394.991C587.415 393.964 586.574 393.123 585.547 393.123C584.52 393.123 583.68 393.964 583.68 394.991C583.68 396.018 584.52 396.859 585.547 396.859Z" fill="white"/>
<path fill-rule="evenodd" clip-rule="evenodd" d="M710.907 470.51C711.934 470.51 712.775 469.669 712.775 468.642C712.775 467.616 711.934 466.775 710.907 466.775C709.88 466.775 709.039 467.616 709.039 468.642C709.039 469.669 709.88 470.51 710.907 470.51Z" fill="white"/>
<path d="M1225.49 603.976H54V626.809H1225.49V603.976Z" fill="#1E3650"/>
<path d="M422.394 269.973C423.425 269.973 424.261 269.137 424.261 268.106C424.261 267.074 423.425 266.238 422.394 266.238C421.362 266.238 420.526 267.074 420.526 268.106C420.526 269.137 421.362 269.973 422.394 269.973Z" fill="white"/>
<path fill-rule="evenodd" clip-rule="evenodd" d="M618.061 224.533C619.087 224.533 619.928 223.692 619.928 222.665C619.928 221.639 619.087 220.798 618.061 220.798C617.034 220.798 616.193 221.639 616.193 222.665C616.193 223.692 617.034 224.533 618.061 224.533Z" fill="white"/>
<path fill-rule="evenodd" clip-rule="evenodd" d="M591.551 239.68C592.578 239.68 593.419 238.839 593.419 237.812C593.419 236.785 592.578 235.944 591.551 235.944C590.524 235.944 589.683 236.785 589.683 237.812C589.683 238.839 590.524 239.68 591.551 239.68Z" fill="white"/>
<path fill-rule="evenodd" clip-rule="evenodd" d="M143.316 285.042C143.962 285.042 144.49 284.514 144.49 283.868C144.49 283.223 143.962 282.695 143.316 282.695C142.671 282.695 142.143 283.223 142.143 283.868C142.143 284.514 142.671 285.042 143.316 285.042Z" fill="white"/>
<path d="M237.551 616.17H228.086V620.14H237.551V616.17Z" fill="#162B42"/>
<path d="M382.409 616.17H372.944V620.14H382.409V616.17Z" fill="#162B42"/>
<path d="M1029.39 616.17H1019.93V620.14H1029.39V616.17Z" fill="#162B42"/>
<path d="M107.517 450.542C108.549 450.542 109.385 449.706 109.385 448.675C109.385 447.643 108.549 446.807 107.517 446.807C106.486 446.807 105.65 447.643 105.65 448.675C105.65 449.706 106.486 450.542 107.517 450.542Z" fill="white"/>
<path fill-rule="evenodd" clip-rule="evenodd" d="M188.033 449.574C188.552 449.574 188.962 449.154 188.962 448.645C188.962 448.137 188.542 447.707 188.033 447.707C187.525 447.707 187.095 448.127 187.095 448.645C187.095 449.164 187.515 449.574 188.033 449.574Z" fill="white"/>
<path fill-rule="evenodd" clip-rule="evenodd" d="M216.753 407.635C217.271 407.635 217.691 407.214 217.691 406.696C217.691 406.178 217.271 405.767 216.753 405.767C216.234 405.767 215.824 406.187 215.824 406.696C215.824 407.204 216.244 407.635 216.753 407.635Z" fill="white"/>
<path fill-rule="evenodd" clip-rule="evenodd" d="M280.185 443.932C280.704 443.932 281.114 443.512 281.114 443.003C281.114 442.495 280.694 442.064 280.185 442.064C279.677 442.064 279.247 442.485 279.247 443.003C279.247 443.521 279.667 443.932 280.185 443.932Z" fill="white"/>
<path fill-rule="evenodd" clip-rule="evenodd" d="M150.161 496.002C150.68 496.002 151.09 495.582 151.09 495.064C151.09 494.545 150.67 494.135 150.161 494.135C149.653 494.135 149.223 494.555 149.223 495.064C149.223 495.572 149.643 496.002 150.161 496.002Z" fill="white"/>
<path fill-rule="evenodd" clip-rule="evenodd" d="M293.435 432.57C293.954 432.57 294.374 432.149 294.374 431.631C294.374 431.113 293.954 430.702 293.435 430.702C292.917 430.702 292.506 431.122 292.506 431.631C292.506 432.139 292.927 432.57 293.435 432.57Z" fill="white"/>
<path fill-rule="evenodd" clip-rule="evenodd" d="M287.128 400.369C287.646 400.369 288.067 399.949 288.067 399.44C288.067 398.932 287.646 398.501 287.128 398.501C286.61 398.501 286.199 398.922 286.199 399.44C286.199 399.958 286.62 400.369 287.128 400.369Z" fill="white"/>
<path fill-rule="evenodd" clip-rule="evenodd" d="M534.23 426.585C534.748 426.585 535.159 426.165 535.159 425.656C535.159 425.148 534.738 424.718 534.23 424.718C533.721 424.718 533.291 425.138 533.291 425.656C533.291 426.175 533.712 426.585 534.23 426.585Z" fill="white"/>
<path fill-rule="evenodd" clip-rule="evenodd" d="M552.388 468.232C552.643 468.232 552.858 468.026 552.858 467.762C552.858 467.498 552.652 467.293 552.388 467.293C552.124 467.293 551.919 467.498 551.919 467.762C551.919 468.026 552.124 468.232 552.388 468.232Z" fill="white"/>
<path fill-rule="evenodd" clip-rule="evenodd" d="M533.917 478.01C534.523 478.01 535.022 477.511 535.022 476.905C535.022 476.299 534.523 475.8 533.917 475.8C533.311 475.8 532.812 476.299 532.812 476.905C532.812 477.511 533.311 478.01 533.917 478.01Z" fill="white"/>
<path fill-rule="evenodd" clip-rule="evenodd" d="M489.806 502.798C490.109 502.798 490.354 502.554 490.354 502.251C490.354 501.948 490.109 501.703 489.806 501.703C489.503 501.703 489.259 501.948 489.259 502.251C489.259 502.554 489.503 502.798 489.806 502.798Z" fill="white"/>
<path fill-rule="evenodd" clip-rule="evenodd" d="M484.995 495.376C485.298 495.376 485.543 495.132 485.543 494.829C485.543 494.526 485.298 494.281 484.995 494.281C484.692 494.281 484.448 494.526 484.448 494.829C484.448 495.132 484.692 495.376 484.995 495.376Z" fill="white"/>
<path fill-rule="evenodd" clip-rule="evenodd" d="M550.951 493.167C551.254 493.167 551.499 492.922 551.499 492.619C551.499 492.316 551.254 492.072 550.951 492.072C550.648 492.072 550.403 492.316 550.403 492.619C550.403 492.922 550.648 493.167 550.951 493.167Z" fill="white"/>
<path fill-rule="evenodd" clip-rule="evenodd" d="M1111.45 169.216C1112.06 169.216 1112.56 168.718 1112.56 168.111C1112.56 167.505 1112.06 167.006 1111.45 167.006C1110.85 167.006 1110.35 167.505 1110.35 168.111C1110.35 168.718 1110.85 169.216 1111.45 169.216Z" fill="white"/>
<path fill-rule="evenodd" clip-rule="evenodd" d="M1093.55 201.72C1093.85 201.72 1094.1 201.475 1094.1 201.172C1094.1 200.869 1093.85 200.625 1093.55 200.625C1093.24 200.625 1093 200.869 1093 201.172C1093 201.475 1093.24 201.72 1093.55 201.72Z" fill="white"/>
<path fill-rule="evenodd" clip-rule="evenodd" d="M1128.02 240.697C1128.32 240.697 1128.56 240.452 1128.56 240.149C1128.56 239.846 1128.32 239.602 1128.02 239.602C1127.71 239.602 1127.47 239.846 1127.47 240.149C1127.47 240.452 1127.71 240.697 1128.02 240.697Z" fill="white"/>
<path d="M1159.66 218.285C1160.36 218.285 1160.92 217.72 1160.92 217.023C1160.92 216.326 1160.36 215.762 1159.66 215.762C1158.96 215.762 1158.4 216.326 1158.4 217.023C1158.4 217.72 1158.96 218.285 1159.66 218.285Z" fill="white"/>
<path d="M1093.94 481.491C1094.64 481.491 1095.2 480.926 1095.2 480.23C1095.2 479.533 1094.64 478.968 1093.94 478.968C1093.24 478.968 1092.68 479.533 1092.68 480.23C1092.68 480.926 1093.24 481.491 1093.94 481.491Z" fill="white"/>
<path fill-rule="evenodd" clip-rule="evenodd" d="M1093.31 424.688C1093.67 424.688 1093.95 424.405 1093.95 424.053C1093.95 423.701 1093.67 423.417 1093.31 423.417C1092.96 423.417 1092.68 423.701 1092.68 424.053C1092.68 424.405 1092.96 424.688 1093.31 424.688Z" fill="white"/>
<path fill-rule="evenodd" clip-rule="evenodd" d="M1134.33 483.701C1134.51 483.701 1134.65 483.554 1134.65 483.388C1134.65 483.222 1134.5 483.075 1134.33 483.075C1134.17 483.075 1134.02 483.212 1134.02 483.388C1134.02 483.564 1134.16 483.701 1134.33 483.701Z" fill="white"/>
<path fill-rule="evenodd" clip-rule="evenodd" d="M1001.43 550.214C1001.76 550.214 1002.02 549.95 1002.02 549.628C1002.02 549.305 1001.76 549.041 1001.43 549.041C1001.11 549.041 1000.85 549.305 1000.85 549.628C1000.85 549.95 1001.11 550.214 1001.43 550.214Z" fill="white"/>
<path d="M755.33 44.6875C756.362 44.6875 757.198 43.8513 757.198 42.8198C757.198 41.7883 756.362 40.9521 755.33 40.9521C754.299 40.9521 753.463 41.7883 753.463 42.8198C753.463 43.8513 754.299 44.6875 755.33 44.6875Z" fill="white"/>
<path fill-rule="evenodd" clip-rule="evenodd" d="M781.537 65.5156C782.055 65.5156 782.475 65.0952 782.475 64.5769C782.475 64.0587 782.055 63.6382 781.537 63.6382C781.018 63.6382 780.608 64.0587 780.608 64.5769C780.608 65.0952 781.028 65.5156 781.537 65.5156Z" fill="white"/>
<path fill-rule="evenodd" clip-rule="evenodd" d="M789.095 56.0598C789.614 56.0598 790.024 55.6394 790.024 55.1309C790.024 54.6224 789.604 54.1921 789.095 54.1921C788.587 54.1921 788.157 54.6126 788.157 55.1309C788.157 55.6491 788.577 56.0598 789.095 56.0598Z" fill="white"/>
<path fill-rule="evenodd" clip-rule="evenodd" d="M853.477 102.459C853.995 102.459 854.406 102.038 854.406 101.52C854.406 101.002 853.985 100.591 853.477 100.591C852.968 100.591 852.538 101.011 852.538 101.52C852.538 102.028 852.959 102.459 853.477 102.459Z" fill="white"/>
<path fill-rule="evenodd" clip-rule="evenodd" d="M648.022 124.548C648.54 124.548 648.96 124.128 648.96 123.619C648.96 123.111 648.54 122.68 648.022 122.68C647.503 122.68 647.093 123.101 647.093 123.619C647.093 124.137 647.513 124.548 648.022 124.548Z" fill="white"/>
<path fill-rule="evenodd" clip-rule="evenodd" d="M686.197 22.2754C687.223 22.2754 688.064 21.4345 688.064 20.4077C688.064 19.381 687.223 18.54 686.197 18.54C685.17 18.54 684.329 19.381 684.329 20.4077C684.329 21.4345 685.17 22.2754 686.197 22.2754Z" fill="white"/>
<path d="M434.978 99.2805C436.01 99.2805 436.846 98.4443 436.846 97.4129C436.846 96.3814 436.01 95.5452 434.978 95.5452C433.947 95.5452 433.111 96.3814 433.111 97.4129C433.111 98.4443 433.947 99.2805 434.978 99.2805Z" fill="white"/>
<path fill-rule="evenodd" clip-rule="evenodd" d="M550.511 163.036C551.538 163.036 552.379 162.195 552.379 161.168C552.379 160.142 551.538 159.301 550.511 159.301C549.484 159.301 548.643 160.142 548.643 161.168C548.643 162.195 549.484 163.036 550.511 163.036Z" fill="white"/>
<path fill-rule="evenodd" clip-rule="evenodd" d="M551.45 199.344C551.968 199.344 552.388 198.923 552.388 198.405C552.388 197.887 551.968 197.476 551.45 197.476C550.931 197.476 550.521 197.896 550.521 198.405C550.521 198.913 550.941 199.344 551.45 199.344Z" fill="white"/>
<path fill-rule="evenodd" clip-rule="evenodd" d="M519.885 192.401C520.403 192.401 520.824 191.98 520.824 191.472C520.824 190.963 520.403 190.533 519.885 190.533C519.367 190.533 518.956 190.954 518.956 191.472C518.956 191.99 519.376 192.401 519.885 192.401Z" fill="white"/>
<path fill-rule="evenodd" clip-rule="evenodd" d="M471.286 45.3328C471.804 45.3328 472.215 44.9123 472.215 44.394C472.215 43.8758 471.794 43.4651 471.286 43.4651C470.777 43.4651 470.347 43.8856 470.347 44.394C470.347 44.9025 470.768 45.3328 471.286 45.3328Z" fill="white"/>
<path fill-rule="evenodd" clip-rule="evenodd" d="M468.763 60.4797C469.281 60.4797 469.692 60.0593 469.692 59.541C469.692 59.0228 469.272 58.6121 468.763 58.6121C468.255 58.6121 467.824 59.0325 467.824 59.541C467.824 60.0495 468.245 60.4797 468.763 60.4797Z" fill="white"/>
<path fill-rule="evenodd" clip-rule="evenodd" d="M605.73 41.5486C606.248 41.5486 606.669 41.1281 606.669 40.6099C606.669 40.0916 606.248 39.6809 605.73 39.6809C605.212 39.6809 604.801 40.1014 604.801 40.6099C604.801 41.1183 605.221 41.5486 605.73 41.5486Z" fill="white"/>
<path d="M310.01 115.718C311.041 115.718 311.877 114.882 311.877 113.851C311.877 112.819 311.041 111.983 310.01 111.983C308.978 111.983 308.142 112.819 308.142 113.851C308.142 114.882 308.978 115.718 310.01 115.718Z" fill="white"/>
<path d="M159.128 194.591C160.16 194.591 160.996 193.755 160.996 192.724C160.996 191.692 160.16 190.856 159.128 190.856C158.097 190.856 157.26 191.692 157.26 192.724C157.26 193.755 158.097 194.591 159.128 194.591Z" fill="white"/>
<path fill-rule="evenodd" clip-rule="evenodd" d="M1080.05 37.4514C1080.57 37.4514 1080.99 37.031 1080.99 36.5127C1080.99 35.9944 1080.57 35.5837 1080.05 35.5837C1079.54 35.5837 1079.12 36.0042 1079.12 36.5127C1079.12 37.0212 1079.55 37.4514 1080.05 37.4514Z" fill="white"/>
<path fill-rule="evenodd" clip-rule="evenodd" d="M1193.84 102.928C1195.14 102.928 1196.19 101.872 1196.19 100.571C1196.19 99.2709 1195.14 98.2148 1193.84 98.2148C1192.54 98.2148 1191.48 99.2709 1191.48 100.571C1191.48 101.872 1192.54 102.928 1193.84 102.928Z" fill="white"/>
<path fill-rule="evenodd" clip-rule="evenodd" d="M1051.95 72.468C1052.47 72.468 1052.89 72.0476 1052.89 71.5391C1052.89 71.0306 1052.47 70.6003 1051.95 70.6003C1051.43 70.6003 1051.02 71.0208 1051.02 71.5391C1051.02 72.0573 1051.44 72.468 1051.95 72.468Z" fill="white"/>
<path fill-rule="evenodd" clip-rule="evenodd" d="M993.895 68.5371C994.414 68.5371 994.824 68.1166 994.824 67.6082C994.824 67.0997 994.404 66.6694 993.895 66.6694C993.387 66.6694 992.957 67.0899 992.957 67.6082C992.957 68.1264 993.377 68.5371 993.895 68.5371Z" fill="white"/>
<path fill-rule="evenodd" clip-rule="evenodd" d="M1182.78 192.088C1183.03 192.088 1183.25 191.883 1183.25 191.619C1183.25 191.355 1183.04 191.149 1182.78 191.149C1182.51 191.149 1182.31 191.355 1182.31 191.619C1182.31 191.883 1182.51 192.088 1182.78 192.088Z" fill="white"/>
<path fill-rule="evenodd" clip-rule="evenodd" d="M1179.95 278.09C1181.34 278.09 1182.47 276.955 1182.47 275.567C1182.47 274.178 1181.34 273.044 1179.95 273.044C1178.56 273.044 1177.43 274.178 1177.43 275.567C1177.43 276.955 1178.56 278.09 1179.95 278.09Z" fill="white"/>
<path fill-rule="evenodd" clip-rule="evenodd" d="M1133.94 223.731C1134.25 223.731 1134.49 223.486 1134.49 223.183C1134.49 222.88 1134.25 222.636 1133.94 222.636C1133.64 222.636 1133.39 222.88 1133.39 223.183C1133.39 223.486 1133.64 223.731 1133.94 223.731Z" fill="white"/>
<path fill-rule="evenodd" clip-rule="evenodd" d="M1156.03 245.821C1156.34 245.821 1156.58 245.576 1156.58 245.273C1156.58 244.97 1156.34 244.725 1156.03 244.725C1155.73 244.725 1155.48 244.97 1155.48 245.273C1155.48 245.576 1155.73 245.821 1156.03 245.821Z" fill="white"/>
<path fill-rule="evenodd" clip-rule="evenodd" d="M1147.12 405.992C1148.08 405.992 1148.85 405.21 1148.85 404.251C1148.85 403.293 1148.07 402.521 1147.12 402.521C1146.18 402.521 1145.39 403.303 1145.39 404.251C1145.39 405.2 1146.18 405.992 1147.12 405.992Z" fill="white"/>
<path fill-rule="evenodd" clip-rule="evenodd" d="M1135.36 419.476C1135.84 419.476 1136.23 419.085 1136.23 418.606C1136.23 418.127 1135.84 417.736 1135.36 417.736C1134.88 417.736 1134.49 418.127 1134.49 418.606C1134.49 419.085 1134.88 419.476 1135.36 419.476Z" fill="white"/>
<path fill-rule="evenodd" clip-rule="evenodd" d="M1119.82 405.992C1120.3 405.992 1120.69 405.601 1120.69 405.121C1120.69 404.642 1120.3 404.251 1119.82 404.251C1119.34 404.251 1118.95 404.642 1118.95 405.121C1118.95 405.601 1119.34 405.992 1119.82 405.992Z" fill="white"/>
<path fill-rule="evenodd" clip-rule="evenodd" d="M1161.01 587.138C1162.06 587.138 1162.91 586.287 1162.91 585.241C1162.91 584.194 1162.06 583.344 1161.01 583.344C1159.96 583.344 1159.11 584.194 1159.11 585.241C1159.11 586.287 1159.96 587.138 1161.01 587.138Z" fill="white"/>
<path fill-rule="evenodd" clip-rule="evenodd" d="M1119.67 569.546C1120.18 569.546 1120.61 569.116 1120.61 568.598C1120.61 568.08 1120.18 567.649 1119.67 567.649C1119.15 567.649 1118.72 568.08 1118.72 568.598C1118.72 569.116 1119.15 569.546 1119.67 569.546Z" fill="white"/>
<path fill-rule="evenodd" clip-rule="evenodd" d="M1174.02 543.193C1174.85 543.193 1175.52 542.519 1175.52 541.697C1175.52 540.876 1174.85 540.201 1174.02 540.201C1173.2 540.201 1172.53 540.876 1172.53 541.697C1172.53 542.519 1173.2 543.193 1174.02 543.193Z" fill="white"/>
<path fill-rule="evenodd" clip-rule="evenodd" d="M928.038 539.341C928.732 539.341 929.299 538.774 929.299 538.079C929.299 537.385 928.732 536.818 928.038 536.818C927.343 536.818 926.776 537.385 926.776 538.079C926.776 538.774 927.343 539.341 928.038 539.341Z" fill="white"/>
<path fill-rule="evenodd" clip-rule="evenodd" d="M962.184 570.094C962.526 570.094 962.82 569.81 962.82 569.458C962.82 569.106 962.536 568.823 962.184 568.823C961.832 568.823 961.548 569.106 961.548 569.458C961.548 569.81 961.832 570.094 962.184 570.094Z" fill="white"/>
<path fill-rule="evenodd" clip-rule="evenodd" d="M926.669 558.262C927.021 558.262 927.304 557.978 927.304 557.626C927.304 557.274 927.021 556.991 926.669 556.991C926.317 556.991 926.043 557.274 926.043 557.626C926.043 557.978 926.326 558.262 926.669 558.262Z" fill="white"/>
<path fill-rule="evenodd" clip-rule="evenodd" d="M275.11 57.9763C275.629 57.9763 276.039 57.5559 276.039 57.0376C276.039 56.5193 275.619 56.1086 275.11 56.1086C274.602 56.1086 274.172 56.5291 274.172 57.0376C274.172 57.5461 274.592 57.9763 275.11 57.9763Z" fill="white"/>
<path fill-rule="evenodd" clip-rule="evenodd" d="M272.588 73.1233C273.106 73.1233 273.517 72.7028 273.517 72.1846C273.517 71.6663 273.096 71.2556 272.588 71.2556C272.079 71.2556 271.649 71.6761 271.649 72.1846C271.649 72.693 272.069 73.1233 272.588 73.1233Z" fill="white"/>
<path fill-rule="evenodd" clip-rule="evenodd" d="M294.99 119.835C295.508 119.835 295.919 119.414 295.919 118.896C295.919 118.378 295.499 117.967 294.99 117.967C294.482 117.967 294.051 118.388 294.051 118.896C294.051 119.405 294.472 119.835 294.99 119.835Z" fill="white"/>
<path fill-rule="evenodd" clip-rule="evenodd" d="M201.889 230.292C202.408 230.292 202.828 229.872 202.828 229.364C202.828 228.855 202.408 228.425 201.889 228.425C201.371 228.425 200.96 228.845 200.96 229.364C200.96 229.882 201.381 230.292 201.889 230.292Z" fill="white"/>
<path fill-rule="evenodd" clip-rule="evenodd" d="M313.941 144.438C314.459 144.438 314.879 144.017 314.879 143.499C314.879 142.981 314.459 142.57 313.941 142.57C313.422 142.57 313.002 142.99 313.002 143.499C313.002 144.007 313.422 144.438 313.941 144.438Z" fill="white"/>
<path fill-rule="evenodd" clip-rule="evenodd" d="M169.718 36.19C170.237 36.19 170.657 35.7695 170.657 35.261C170.657 34.7525 170.237 34.3223 169.718 34.3223C169.2 34.3223 168.78 34.7427 168.78 35.261C168.78 35.7793 169.2 36.19 169.718 36.19Z" fill="white"/>
<path fill-rule="evenodd" clip-rule="evenodd" d="M927.774 42.1843C928.292 42.1843 928.712 41.7639 928.712 41.2456C928.712 40.7273 928.292 40.3167 927.774 40.3167C927.255 40.3167 926.845 40.7371 926.845 41.2456C926.845 41.7541 927.265 42.1843 927.774 42.1843Z" fill="white"/>
<path fill-rule="evenodd" clip-rule="evenodd" d="M182.645 294.987C183.164 294.987 183.574 294.566 183.574 294.058C183.574 293.549 183.154 293.119 182.645 293.119C182.137 293.119 181.707 293.539 181.707 294.058C181.707 294.576 182.127 294.987 182.645 294.987Z" fill="white"/>
<path fill-rule="evenodd" clip-rule="evenodd" d="M202.838 271C203.356 271 203.767 270.58 203.767 270.071C203.767 269.563 203.346 269.132 202.838 269.132C202.329 269.132 201.899 269.553 201.899 270.071C201.899 270.589 202.32 271 202.838 271Z" fill="white"/>
<path fill-rule="evenodd" clip-rule="evenodd" d="M87.6379 260.576C88.1561 260.576 88.5766 260.156 88.5766 259.637C88.5766 259.119 88.1561 258.708 87.6379 258.708C87.1196 258.708 86.7089 259.129 86.7089 259.637C86.7089 260.146 87.1294 260.576 87.6379 260.576Z" fill="white"/>
<path d="M1225.49 631.551H54V635.521H1225.49V631.551Z" fill="#162B42"/>
<path d="M1051.14 616.17H1041.67V620.14H1051.14V616.17Z" fill="#162B42"/>
<path fill-rule="evenodd" clip-rule="evenodd" d="M1073.58 612.679H1093.11V622.193H1072.98V612.679H1073.58ZM1091.91 613.872H1074.18V621H1091.91V613.872Z" fill="#162B42"/>
<path fill-rule="evenodd" clip-rule="evenodd" d="M971.327 612.679H990.854V622.193H970.73V612.679H971.327ZM989.661 613.872H971.923V621H989.661V613.872Z" fill="#162B42"/>
<path fill-rule="evenodd" clip-rule="evenodd" d="M288.879 612.679H308.406V622.193H288.282V612.679H288.879ZM307.213 613.872H289.475V621H307.213V613.872Z" fill="#162B42"/>
<path fill-rule="evenodd" clip-rule="evenodd" d="M110.187 612.679H129.715V622.193H109.591V612.679H110.187ZM128.522 613.872H110.783V621H128.522V613.872Z" fill="#162B42"/>
<path d="M658.895 303.396C659.927 303.396 660.763 302.56 660.763 301.529C660.763 300.497 659.927 299.661 658.895 299.661C657.864 299.661 657.028 300.497 657.028 301.529C657.028 302.56 657.864 303.396 658.895 303.396Z" fill="white"/>
<path fill-rule="evenodd" clip-rule="evenodd" d="M670.258 437.869C670.61 437.869 670.894 437.586 670.894 437.234C670.894 436.882 670.61 436.598 670.258 436.598C669.906 436.598 669.622 436.882 669.622 437.234C669.622 437.586 669.906 437.869 670.258 437.869Z" fill="white"/>
<path fill-rule="evenodd" clip-rule="evenodd" d="M646.897 479.526C647.239 479.526 647.523 479.242 647.523 478.89C647.523 478.538 647.239 478.254 646.897 478.254C646.555 478.254 646.262 478.538 646.262 478.89C646.262 479.242 646.545 479.526 646.897 479.526Z" fill="white"/>
<path fill-rule="evenodd" clip-rule="evenodd" d="M658.26 472.27C658.612 472.27 658.895 471.987 658.895 471.635C658.895 471.283 658.612 470.999 658.26 470.999C657.908 470.999 657.624 471.283 657.624 471.635C657.624 471.987 657.908 472.27 658.26 472.27Z" fill="white"/>
<path fill-rule="evenodd" clip-rule="evenodd" d="M721.067 526.863C721.409 526.863 721.702 526.58 721.702 526.228C721.702 525.876 721.419 525.592 721.067 525.592C720.715 525.592 720.431 525.876 720.431 526.228C720.431 526.58 720.715 526.863 721.067 526.863Z" fill="white"/>
<path fill-rule="evenodd" clip-rule="evenodd" d="M643.436 393.681C643.778 393.681 644.071 393.397 644.071 393.045C644.071 392.693 643.788 392.419 643.436 392.419C643.084 392.419 642.8 392.703 642.8 393.045C642.8 393.387 643.084 393.681 643.436 393.681Z" fill="white"/>
<path fill-rule="evenodd" clip-rule="evenodd" d="M735.265 512.978C735.607 512.978 735.901 512.694 735.901 512.342C735.901 511.99 735.617 511.707 735.265 511.707C734.913 511.707 734.63 511.99 734.63 512.342C734.63 512.694 734.913 512.978 735.265 512.978Z" fill="white"/>
<path fill-rule="evenodd" clip-rule="evenodd" d="M163.773 381.712C164.096 381.712 164.36 381.448 164.36 381.125C164.36 380.802 164.096 380.538 163.773 380.538C163.45 380.538 163.186 380.802 163.186 381.125C163.186 381.448 163.45 381.712 163.773 381.712Z" fill="white"/>
<path fill-rule="evenodd" clip-rule="evenodd" d="M471.794 707.198C557.375 700.45 626.754 699.864 626.754 705.887C626.754 711.911 557.375 722.276 471.794 729.023C386.213 735.77 316.835 736.357 316.835 730.333C316.835 724.31 386.213 713.945 471.794 707.198Z" fill="#162B42"/>
<path fill-rule="evenodd" clip-rule="evenodd" d="M578.37 522.57C581.509 524.506 583.572 528.056 583.494 532.085L583.357 538.734C583.298 541.384 582.32 543.829 580.736 545.745C580.922 546.43 581.01 547.153 580.99 547.897C580.961 549.324 580.55 550.664 579.856 551.808H582.35C584.696 551.808 586.877 552.512 588.706 553.715C592.412 553.842 595.57 556.697 596 560.569L598.895 586.541C599.041 587.851 598.856 589.142 598.406 590.306L605.114 609.335C605.681 610.948 605.691 612.64 605.241 614.204C605.339 614.674 605.378 615.172 605.368 615.671L605.28 619.856C605.202 623.689 602.053 626.828 598.288 626.828C596.127 626.828 594.211 625.792 592.989 624.198V624.247L595.267 640.244C595.619 642.718 594.406 645.114 592.392 646.356L592.773 649.397C592.881 650.238 592.891 651.079 592.813 651.89C593.243 652.575 593.546 653.357 593.663 654.208L595.942 670.206C596.079 671.144 595.981 672.073 595.707 672.934L598.376 694.456C602.855 695.317 606.082 697.957 606.013 701.086C605.935 704.909 600.968 708.009 594.925 708.009H594.876C593.301 709.388 591.336 710.346 589.155 710.669C583.093 711.578 577.499 707.285 576.737 701.125L572.982 670.851C572.522 667.125 573.93 663.527 576.463 661.072C573.422 659.449 571.192 656.408 570.733 652.682L569.726 644.596L568.181 653.856C567.574 657.513 565.257 660.496 562.216 662.08C564.592 664.485 565.824 668.005 565.218 671.663L561.16 696.06C563.33 697.331 564.66 699.15 564.621 701.174C564.563 704.283 561.277 706.904 556.808 707.784C554.422 710.014 551.107 711.177 547.724 710.669C541.818 709.779 537.809 704.107 538.806 698.074L543.734 668.416C544.341 664.759 546.658 661.777 549.699 660.192C547.323 657.787 546.091 654.267 546.697 650.609L547 648.8C545.231 647.676 544.204 645.515 544.575 643.266L547.04 628.442C547.411 626.183 549.083 624.442 551.137 623.895L551.235 623.337C546.003 620.189 542.551 614.331 542.688 607.662L542.894 597.972C540.42 596.046 538.855 592.985 538.933 589.553L539.461 564.295C539.569 559.318 543.089 555.123 547.685 554.037C550.188 550.918 553.65 548.63 557.59 547.662C557.659 546.303 558.07 545.022 558.754 543.917L558.803 541.677C558.813 541.179 558.872 540.69 558.96 540.221C558.383 538.852 558.079 537.346 558.109 535.771L558.246 529.122C558.373 523.03 563.458 518.043 569.55 518.043C573.197 518.043 576.414 519.832 578.38 522.57H578.37ZM586.163 602.754C585.42 603.047 584.608 603.213 583.767 603.213H583.591L583.484 608.572C583.464 609.305 583.396 610.029 583.279 610.723C584.266 611.251 585.166 611.926 585.958 612.728C587.943 613.715 589.4 615.661 589.703 618.057L589.928 619.866C590.612 620.218 591.219 620.707 591.717 621.313C591.629 620.844 591.58 620.355 591.6 619.866L591.659 617.148C591.16 616.512 590.759 615.779 590.475 614.977L586.173 602.763L586.163 602.754Z" fill="white"/>
<path fill-rule="evenodd" clip-rule="evenodd" d="M568.406 518.747C574.497 518.747 579.387 523.734 579.26 529.826L579.123 536.475C578.996 542.567 573.911 547.554 567.819 547.554C561.727 547.554 556.838 542.567 556.965 536.475L557.102 529.826C557.229 523.734 562.314 518.747 568.406 518.747Z" fill="#1E3650"/>
<path fill-rule="evenodd" clip-rule="evenodd" d="M576.795 523.724C579.318 525.758 580.902 528.897 580.834 532.408L580.697 539.057C580.609 543.232 578.203 546.88 574.732 548.767C572.209 546.733 570.625 543.594 570.694 540.084L570.831 533.434C570.919 529.259 573.324 525.612 576.795 523.724Z" fill="#FF99C7"/>
<path fill-rule="evenodd" clip-rule="evenodd" d="M575.221 521.143C577.744 523.177 579.328 526.316 579.26 529.826L579.123 536.475C579.035 540.651 576.629 544.298 573.158 546.185C570.635 544.152 569.051 541.013 569.119 537.502L569.256 530.853C569.344 526.677 571.75 523.03 575.221 521.143Z" fill="#486887"/>
<path fill-rule="evenodd" clip-rule="evenodd" d="M560.778 537.893H569.119C573.383 537.893 576.795 541.384 576.707 545.638C576.619 549.901 573.06 553.382 568.797 553.382H560.456C556.192 553.382 552.78 549.891 552.868 545.638C552.956 541.374 556.515 537.893 560.778 537.893Z" fill="#486887"/>
<path fill-rule="evenodd" clip-rule="evenodd" d="M558.461 531.263C562.949 531.263 566.724 534.93 566.861 539.418L567.183 550.331C567.31 554.819 563.751 558.486 559.263 558.486C554.774 558.486 551 554.819 550.863 550.331L550.54 539.418C550.413 534.93 553.973 531.263 558.461 531.263Z" fill="#1E3650"/>
<path fill-rule="evenodd" clip-rule="evenodd" d="M586.085 561.684C585.948 568.353 580.374 573.819 573.705 573.819H555.938C549.259 573.819 543.91 568.363 544.047 561.684C544.184 555.015 549.758 549.549 556.427 549.549H574.194C580.873 549.549 586.222 555.006 586.085 561.684Z" fill="#486887"/>
<path fill-rule="evenodd" clip-rule="evenodd" d="M576.629 561.684C576.492 568.353 570.919 573.819 564.25 573.819H555.928C549.25 573.819 543.901 568.363 544.038 561.684C544.174 555.015 549.748 549.549 556.417 549.549H564.739C571.417 549.549 576.766 555.006 576.629 561.684Z" fill="#486887"/>
<path fill-rule="evenodd" clip-rule="evenodd" d="M589.996 561.684C589.859 568.353 584.286 573.819 577.617 573.819H559.849C553.171 573.819 547.822 568.363 547.959 561.684C548.096 555.015 553.669 549.549 560.338 549.549H578.106C584.784 549.549 590.133 555.006 589.996 561.684Z" fill="#486887"/>
<path fill-rule="evenodd" clip-rule="evenodd" d="M581.215 570.103L580.805 590.051C580.638 597.962 574.028 604.445 566.117 604.445C558.197 604.445 551.851 597.972 552.017 590.051L552.428 570.103C552.584 562.193 559.194 555.709 567.115 555.709C575.035 555.709 581.382 562.183 581.215 570.103Z" fill="#486887"/>
<path fill-rule="evenodd" clip-rule="evenodd" d="M580.922 584.214L580.805 590.051C580.638 597.962 574.028 604.445 566.117 604.445C558.197 604.445 551.851 597.972 552.017 590.051L552.134 584.214C552.291 576.303 558.901 569.82 566.821 569.82C574.742 569.82 581.088 576.293 580.922 584.214Z" fill="#486887"/>
<path fill-rule="evenodd" clip-rule="evenodd" d="M579.436 600.475L579.318 606.323C579.162 614.234 572.552 620.717 564.631 620.717C556.71 620.717 550.364 614.244 550.531 606.323L550.648 600.475C550.814 592.565 557.415 586.082 565.335 586.082C573.256 586.082 579.602 592.555 579.436 600.475Z" fill="#2D4866"/>
<path fill-rule="evenodd" clip-rule="evenodd" d="M574.918 563.034L574.057 605.423C573.852 615.397 565.531 623.552 555.547 623.552C545.573 623.552 537.574 615.397 537.779 605.423L538.64 563.034C538.845 553.06 547.167 544.904 557.151 544.904C567.125 544.904 575.123 553.06 574.918 563.034Z" fill="#162B42"/>
<path fill-rule="evenodd" clip-rule="evenodd" d="M570.977 567.845L570.488 591.733C570.351 598.305 566.694 604.093 561.355 607.281C564.817 603.976 567.017 599.38 567.124 594.305L567.721 565.292C567.829 560.217 565.804 555.612 562.48 552.307C567.682 555.494 571.114 561.273 570.977 567.854V567.845Z" fill="#1E3650"/>
<path fill-rule="evenodd" clip-rule="evenodd" d="M562.685 570.543L562.265 590.883C562.167 595.537 558.275 599.351 553.62 599.351C553.268 599.351 552.916 599.331 552.574 599.282C556.143 598.265 558.823 594.99 558.901 591.137L559.312 570.798C559.4 566.495 556.212 562.916 552.056 562.398C552.799 562.193 553.572 562.075 554.373 562.075C559.038 562.075 562.773 565.889 562.685 570.543Z" fill="#486887"/>
<path fill-rule="evenodd" clip-rule="evenodd" d="M586.809 578.073L586.476 594.227C586.398 597.933 583.308 600.954 579.602 600.954C575.896 600.954 572.933 597.923 573.011 594.227L573.344 578.073C573.422 574.367 576.512 571.345 580.218 571.345C583.924 571.345 586.887 574.377 586.809 578.073Z" fill="#2D4866"/>
<path fill-rule="evenodd" clip-rule="evenodd" d="M546.903 618.644L541.886 648.439C540.879 654.433 544.976 660.065 550.99 660.965C557.004 661.855 562.754 657.68 563.761 651.685L568.777 621.89C569.784 615.896 565.687 610.264 559.673 609.364C553.66 608.474 547.91 612.65 546.903 618.644Z" fill="#162B42"/>
<path fill-rule="evenodd" clip-rule="evenodd" d="M538.914 666.108L533.897 695.903C532.89 701.897 536.987 707.53 543.001 708.429C549.015 709.319 554.765 705.144 555.772 699.15L560.788 669.355C561.795 663.361 557.698 657.728 551.684 656.829C545.671 655.939 539.921 660.114 538.914 666.108Z" fill="#162B42"/>
<path fill-rule="evenodd" clip-rule="evenodd" d="M585.528 617.773L589.527 649.162C590.348 655.606 585.762 661.659 579.328 662.607C572.894 663.556 566.958 659.058 566.137 652.614L562.138 621.225C561.316 614.771 565.902 608.728 572.336 607.78C578.771 606.831 584.706 611.329 585.528 617.783V617.773Z" fill="#162B42"/>
<path fill-rule="evenodd" clip-rule="evenodd" d="M591.952 668.22L595.951 699.609C596.773 706.053 592.187 712.106 585.753 713.055C579.318 714.003 573.383 709.505 572.561 703.061L568.562 671.672C567.741 665.228 572.327 659.175 578.761 658.227C585.195 657.278 591.131 661.776 591.952 668.23V668.22Z" fill="#162B42"/>
<path fill-rule="evenodd" clip-rule="evenodd" d="M543.06 626.486L539.745 642.425C539.08 645.632 541.779 648.644 545.759 649.123C549.729 649.602 553.523 647.363 554.188 644.156L557.493 628.217C558.158 625.01 555.459 621.998 551.479 621.519C547.509 621.04 543.715 623.279 543.05 626.486H543.06Z" fill="#162B42"/>
<path fill-rule="evenodd" clip-rule="evenodd" d="M586.241 616.639L588.745 636.274C589.263 640.303 586.388 644.087 582.369 644.684C578.35 645.28 574.634 642.464 574.126 638.435L571.623 618.81C571.104 614.781 573.979 610.997 577.998 610.401C582.017 609.804 585.733 612.62 586.241 616.649V616.639Z" fill="#486887"/>
<path fill-rule="evenodd" clip-rule="evenodd" d="M577.382 625.127L579.797 641.711C580.296 645.124 583.484 647.451 586.887 646.884C590.29 646.317 592.666 643.07 592.167 639.658L589.752 623.073C589.253 619.661 586.065 617.333 582.662 617.901C579.26 618.468 576.883 621.714 577.382 625.127Z" fill="#2D4866"/>
<path fill-rule="evenodd" clip-rule="evenodd" d="M594.788 606.45C598.621 606.45 601.691 609.589 601.613 613.422L601.525 617.607C601.447 621.441 598.249 624.579 594.406 624.579C590.573 624.579 587.493 621.441 587.581 617.607L587.669 613.422C587.747 609.589 590.945 606.45 594.788 606.45Z" fill="#FF99C7"/>
<path fill-rule="evenodd" clip-rule="evenodd" d="M588.031 593.19C583.699 593.777 579.758 590.697 579.26 586.365L576.297 560.481C575.798 556.14 578.937 552.111 583.259 551.534C587.591 550.947 591.532 554.028 592.03 558.359L594.993 584.243C595.492 588.585 592.353 592.604 588.031 593.19Z" fill="#486887"/>
<path fill-rule="evenodd" clip-rule="evenodd" d="M596.558 617.294C592.451 618.839 587.884 616.737 586.398 612.601L577.656 588.301C576.17 584.175 578.311 579.53 582.418 577.985C586.525 576.44 591.092 578.542 592.578 582.669L601.32 606.968C602.806 611.095 600.665 615.74 596.558 617.285V617.294Z" fill="#486887"/>
<path fill-rule="evenodd" clip-rule="evenodd" d="M578.116 656.33L580.531 672.914C581.029 676.327 584.217 678.654 587.62 678.087C591.023 677.52 593.399 674.273 592.901 670.861L590.485 654.276C589.987 650.864 586.799 648.537 583.396 649.104C579.993 649.671 577.617 652.917 578.116 656.33Z" fill="#2D4866"/>
<path fill-rule="evenodd" clip-rule="evenodd" d="M592.167 695.854C598.572 695.854 603.706 699.081 603.618 703.061C603.539 707.041 598.279 710.268 591.874 710.268C585.469 710.268 580.335 707.041 580.423 703.061C580.511 699.081 585.762 695.854 592.167 695.854Z" fill="#162B42"/>
<path fill-rule="evenodd" clip-rule="evenodd" d="M549.201 692.001C555.351 692.001 560.28 695.101 560.201 698.925C560.123 702.748 555.068 705.848 548.917 705.848C542.766 705.848 537.838 702.748 537.916 698.925C537.994 695.101 543.05 692.001 549.201 692.001Z" fill="#162B42"/>
<path fill-rule="evenodd" clip-rule="evenodd" d="M583.983 591.303C579.651 591.89 575.71 588.81 575.211 584.478L572.248 558.594C571.75 554.253 574.889 550.224 579.211 549.647C583.543 549.06 587.483 552.14 587.982 556.472L590.945 582.356C591.444 586.697 588.305 590.716 583.983 591.303Z" fill="#162B42"/>
<path fill-rule="evenodd" clip-rule="evenodd" d="M592.519 615.417C588.412 616.962 583.846 614.86 582.359 610.723L573.617 586.424C572.131 582.297 574.273 577.653 578.38 576.108C582.486 574.563 587.053 576.665 588.539 580.791L597.281 605.091C598.768 609.217 596.626 613.862 592.519 615.407V615.417Z" fill="#162B42"/>
<path fill-rule="evenodd" clip-rule="evenodd" d="M596.303 597.845L598.777 604.211C599.384 605.775 598.611 607.555 597.047 608.171C595.492 608.787 593.712 608.015 593.106 606.45L590.632 600.084C590.026 598.52 590.798 596.74 592.363 596.124C593.927 595.508 595.697 596.281 596.303 597.845Z" fill="#1E3650"/>
<path fill-rule="evenodd" clip-rule="evenodd" d="M583.699 708.566C582.741 708.958 581.734 709.231 580.687 709.388C574.155 710.336 568.689 705.926 568.542 699.58L567.809 667.82C567.721 663.986 569.589 660.3 572.522 657.767C569.491 656.095 567.467 652.976 567.379 649.143L566.645 617.382C566.499 611.036 571.72 605.071 578.252 604.123C579.23 603.976 580.189 603.956 581.117 604.044C576.072 606.088 572.395 611.153 572.522 616.483L573.256 648.243C573.344 652.076 575.368 655.196 578.399 656.868C575.466 659.4 573.598 663.087 573.686 666.92L574.419 698.68C574.546 704.068 578.507 708.068 583.699 708.566Z" fill="#1E3650"/>
<path fill-rule="evenodd" clip-rule="evenodd" d="M544.888 618.663C540.234 615.387 537.232 609.921 537.359 603.771L538.219 561.362C538.337 555.367 541.407 550.028 545.993 546.723C542.551 550.185 540.371 554.898 540.263 560.081L539.344 604.944C539.236 610.303 541.368 615.172 544.879 618.663H544.888Z" fill="white"/>
<path fill-rule="evenodd" clip-rule="evenodd" d="M594.895 565.703L596.616 579.55C597.007 582.718 594.739 585.319 591.561 585.319C591.316 585.319 591.082 585.299 590.847 585.27C593.174 584.576 594.68 582.346 594.348 579.726L592.627 565.879C592.265 562.946 589.742 560.511 586.857 560.159C587.346 560.012 587.865 559.944 588.402 559.944C591.58 559.944 594.494 562.535 594.895 565.713V565.703Z" fill="#162B42"/>
<path fill-rule="evenodd" clip-rule="evenodd" d="M627.018 529.709C627.37 529.709 627.653 529.425 627.653 529.073C627.653 528.721 627.37 528.438 627.018 528.438C626.666 528.438 626.382 528.721 626.382 529.073C626.382 529.425 626.666 529.709 627.018 529.709Z" fill="white"/>
<path d="M1225 0H54V780H1225V0Z" fill="url(#paint0_radial_1_197)"/>
<defs>
<radialGradient id="paint0_radial_1_197" cx="0" cy="0" r="1" gradientUnits="userSpaceOnUse" gradientTransform="translate(663.5 390) scale(639.5 420.915)">
<stop offset="0.418779" stop-opacity="0"/>
<stop offset="0.618008" stop-opacity="0.533918"/>
<stop offset="0.882587"/>
</radialGradient>
</defs>
</svg>
