<?xml version="1.0" encoding="UTF-8"?><svg id="Layer_1" xmlns="http://www.w3.org/2000/svg" viewBox="0 0 376.65 328.77"><path d="m96.81,258.81h.01c27.13,20.53,58.22,30.17,92.22,30.62,4.11-.23,8.24-.35,12.34-.7,38.91-3.26,72.68-17.66,98.48-47.58,21.83-25.32,31.43-54.95,24.65-88.18-7.21-35.38-28.43-61.31-59.66-78.33-50.93-27.76-102.48-26.29-152.88,1.31-26.95,14.76-46.45,36.87-55.96,66.88-13.63,43.04,5.93,89.56,40.8,115.98Z"/><path d="m334.72,91.33h0c.34-23.23.21-46.47.04-69.71-.08-11.82-6.16-18.67-17.8-21.02-1.67-.34-3.34-.51-5.01-.6h-150.26c-6.71.01-13.42.02-20.12.04-.47,0-.9-.02-1.31-.04H62.76c-9.88,1.43-18.12,8.63-18.56,20.76-.86,23.99-.19,47.98-.36,71.96-.03,4.07-1.12,6.93-4.07,9.82-22.12,21.72-29.55,47.79-20.72,77.55,5.87,19.78,18.42,34.78,37.7,44.9-28.4-71.25-17.43-133.02,41.17-182.87C142.26,4.39,205.84,1.57,253.31,25.06c28.88,14.3,51.78,35.39,66.47,64.06,22.83,44.53,21.28,89.9.86,135.82,1.62-.48,2.36-.55,2.92-.89,20.03-12.07,32.81-29.54,37.11-52.48,4.83-25.72-2.46-48.23-20.74-66.92-3.86-3.95-5.29-7.8-5.21-13.32Z"/><path d="m186.87,303.08l-.02.02c-47.98-.18-89-17.36-122.93-54.03,0,6.71-.29,11.75.05,16.76,1.4,20.66,10.44,36.72,28.75,47.15,16.2,9.23,34.17,12.04,52.22,13.91,24.63,2.55,49.42,2.14,74.11.93,18.31-.89,36.4-4.02,53.76-10.57,21.81-8.22,34.43-23.81,38.01-46.66.89-5.67,1.33-11.57.24-18.29-34.51,35.96-76.47,50.96-124.19,50.78Z"/><path d="m13.55,186.62h0c-1.48-10.54-4.16-19.45-4.1-28.88.06-9.64,3.01-18.63,4.6-28.27-18.66,14.93-18.63,38.86-.5,57.15Z"/><path d="m363.03,130.44c5.12,18.38,5.99,36.73.17,55.13,18.2-15.9,17.72-47.66-.17-55.13Z"/><path d="m331.81,152.56c-13.57-.8-21.41-2.41-25.91-8.8-24.57-34.95-71.75-35.13-95.63,6.28-2.07,3.58-14.21,1.93-20.65,2.14-6.44-.21-18.59,1.44-20.65-2.14-23.94-41.5-71.15-41.09-95.63-6.28-4.49,6.39-12.34,8-25.9,8.8-1.72.1-2.21,21.09,1.25,21.37,11.54.91,14.03-.87,21.26,17.74,17.42,44.83,85.68,46.17,101.63-7.48,2.72-9.15,9.6-17.9,18.05-16.65,8.75-1.3,15.48,8.01,18.05,16.65,6.86,23.07,26.76,40.76,51.9,40.76,22.72,0,42.04-13.52,49.73-33.29,7.16-18.43,9.48-16.81,21.26-17.74,3.46-.27,2.97-21.26,1.25-21.37h-.01Zm-212.13,60.54c-22.95,0-41.55-18.6-41.55-41.55s18.6-41.55,41.55-41.55,41.55,18.6,41.55,41.55-18.6,41.55-41.55,41.55Zm139.89,0c-22.95,0-41.55-18.6-41.55-41.55s18.6-41.55,41.55-41.55,41.55,18.6,41.55,41.55-18.6,41.55-41.55,41.55Z" style="fill:#fff;"/></svg>